<svg width="16" height="16" viewBox="0 0 16 16" fill="none" xmlns="http://www.w3.org/2000/svg">
<path d="M8 4.6665V13.9998" stroke="#B89A5A" stroke-width="1.33333" stroke-linecap="round" stroke-linejoin="round"/>
<path d="M13.3327 7.3335V12.6668C13.3327 13.0205 13.1922 13.3596 12.9422 13.6096C12.6921 13.8597 12.353 14.0002 11.9993 14.0002H3.99935C3.64573 14.0002 3.30659 13.8597 3.05654 13.6096C2.80649 13.3596 2.66602 13.0205 2.66602 12.6668V7.3335" stroke="#B89A5A" stroke-width="1.33333" stroke-linecap="round" stroke-linejoin="round"/>
<path d="M5.00065 4.66663C4.55862 4.66663 4.1347 4.49104 3.82214 4.17848C3.50958 3.86592 3.33398 3.44199 3.33398 2.99997C3.33398 2.55794 3.50958 2.13402 3.82214 1.82145C4.1347 1.50889 4.55862 1.3333 5.00065 1.3333C5.64377 1.32209 6.274 1.63414 6.80914 2.22874C7.34428 2.82334 7.7595 3.6729 8.00065 4.66663C8.2418 3.6729 8.65702 2.82334 9.19216 2.22874C9.7273 1.63414 10.3575 1.32209 11.0007 1.3333C11.4427 1.3333 11.8666 1.50889 12.1792 1.82145C12.4917 2.13402 12.6673 2.55794 12.6673 2.99997C12.6673 3.44199 12.4917 3.86592 12.1792 4.17848C11.8666 4.49104 11.4427 4.66663 11.0007 4.66663" stroke="#B89A5A" stroke-width="1.33333" stroke-linecap="round" stroke-linejoin="round"/>
<path d="M13.3333 4.6665H2.66667C2.29848 4.6665 2 4.96498 2 5.33317V6.6665C2 7.03469 2.29848 7.33317 2.66667 7.33317H13.3333C13.7015 7.33317 14 7.03469 14 6.6665V5.33317C14 4.96498 13.7015 4.6665 13.3333 4.6665Z" stroke="#B89A5A" stroke-width="1.33333" stroke-linecap="round" stroke-linejoin="round"/>
</svg>
