<svg width="15" height="15" viewBox="0 0 15 15" fill="none" xmlns="http://www.w3.org/2000/svg">
<path d="M1.38981 11.0056C1.44699 10.7459 1.42517 10.4749 1.32714 10.2276C0.644989 8.81227 0.484647 7.20146 0.874405 5.67939C1.26416 4.15733 2.17898 2.82183 3.45744 1.90853C4.7359 0.995221 6.29585 0.562803 7.86206 0.687564C9.42828 0.812326 10.9001 1.48625 12.0179 2.59043C13.1356 3.69461 13.8275 5.15809 13.9713 6.72267C14.1152 8.28724 13.7019 9.85236 12.8043 11.1419C11.9067 12.4314 10.5824 13.3625 9.06524 13.7708C7.54805 14.1791 5.9354 14.0384 4.51181 13.3736C4.27816 13.2849 4.02429 13.2637 3.77914 13.3123L1.50381 13.9776C1.39405 14.0068 1.27867 14.0074 1.16861 13.9794C1.05855 13.9514 0.957457 13.8958 0.874921 13.8178C0.792385 13.7398 0.731139 13.642 0.696993 13.5337C0.662848 13.4254 0.656933 13.3102 0.67981 13.199L1.38981 11.0056Z" stroke="#B89A5A" stroke-width="1.33333" stroke-linecap="round" stroke-linejoin="round"/>
</svg>
