<svg width="15" height="15" viewBox="0 0 15 15" fill="none" xmlns="http://www.w3.org/2000/svg">
<g clip-path="url(#clip0_109_4827)">
<path d="M6.43851 1.64455C6.46354 1.5105 6.53468 1.38942 6.63958 1.3023C6.74449 1.21517 6.87656 1.16748 7.01293 1.16748C7.1493 1.16748 7.28137 1.21517 7.38627 1.3023C7.49118 1.38942 7.56231 1.5105 7.58735 1.64455L8.20151 4.8924C8.24513 5.1233 8.35734 5.3357 8.52351 5.50186C8.68967 5.66803 8.90206 5.78024 9.13297 5.82386L12.3808 6.43802C12.5149 6.46306 12.6359 6.53419 12.7231 6.63909C12.8102 6.744 12.8579 6.87607 12.8579 7.01244C12.8579 7.14881 12.8102 7.28088 12.7231 7.38579C12.6359 7.49069 12.5149 7.56182 12.3808 7.58686L9.13297 8.20102C8.90206 8.24464 8.68967 8.35685 8.52351 8.52302C8.35734 8.68918 8.24513 8.90158 8.20151 9.13248L7.58735 12.3803C7.56231 12.5144 7.49118 12.6355 7.38627 12.7226C7.28137 12.8097 7.1493 12.8574 7.01293 12.8574C6.87656 12.8574 6.74449 12.8097 6.63958 12.7226C6.53468 12.6355 6.46354 12.5144 6.43851 12.3803L5.82435 9.13248C5.78073 8.90158 5.66851 8.68918 5.50235 8.52302C5.33619 8.35685 5.12379 8.24464 4.89288 8.20102L1.64503 7.58686C1.51098 7.56182 1.38991 7.49069 1.30279 7.38579C1.21566 7.28088 1.16797 7.14881 1.16797 7.01244C1.16797 6.87607 1.21566 6.744 1.30279 6.63909C1.38991 6.53419 1.51098 6.46306 1.64503 6.43802L4.89288 5.82386C5.12379 5.78024 5.33619 5.66803 5.50235 5.50186C5.66851 5.3357 5.78073 5.1233 5.82435 4.8924L6.43851 1.64455Z" stroke="#B89A5A" stroke-width="1.16871" stroke-linecap="round" stroke-linejoin="round"/>
<path d="M11.6875 1.16846V3.50588" stroke="#B89A5A" stroke-width="1.16871" stroke-linecap="round" stroke-linejoin="round"/>
<path d="M12.855 2.3374H10.5176" stroke="#B89A5A" stroke-width="1.16871" stroke-linecap="round" stroke-linejoin="round"/>
<path d="M2.33668 12.856C2.98214 12.856 3.50539 12.3327 3.50539 11.6873C3.50539 11.0418 2.98214 10.5186 2.33668 10.5186C1.69122 10.5186 1.16797 11.0418 1.16797 11.6873C1.16797 12.3327 1.69122 12.856 2.33668 12.856Z" stroke="#B89A5A" stroke-width="1.16871" stroke-linecap="round" stroke-linejoin="round"/>
</g>
<defs>
<clipPath id="clip0_109_4827">
<rect width="14.0245" height="14.0245" fill="white"/>
</clipPath>
</defs>
</svg>
