<svg width="19" height="19" viewBox="0 0 19 19" fill="none" xmlns="http://www.w3.org/2000/svg">
<path d="M8.73539 18.4318C8.55939 17.3918 8.09539 16.2718 7.34339 15.0718C6.59139 13.8558 5.51939 12.7278 4.12739 11.6878C2.75139 10.6478 1.37539 9.98383 -0.000609308 9.69583V8.68783C1.35939 8.36783 2.66339 7.77583 3.91139 6.91183C5.17539 6.03183 6.23139 4.97583 7.07939 3.74383C7.94339 2.47983 8.49539 1.23183 8.73539 -0.000172138H9.74339C9.88739 0.799827 10.1754 1.62383 10.6074 2.47183C11.0394 3.30383 11.5914 4.10383 12.2634 4.87183C12.9514 5.62383 13.7194 6.30383 14.5674 6.91183C15.8314 7.80783 17.1194 8.39983 18.4314 8.68783V9.69583C17.5514 9.87183 16.6394 10.2318 15.6954 10.7758C14.7674 11.3198 13.9034 11.9678 13.1034 12.7198C12.3034 13.4558 11.6474 14.2318 11.1354 15.0478C10.3834 16.2478 9.91939 17.3758 9.74339 18.4318H8.73539Z" fill="#B8956A"/>
</svg>
